<svg width="77" height="77" viewBox="0 0 77 77" fill="none" xmlns="http://www.w3.org/2000/svg">
    <g clip-path="url(#clip0_20_158)">
        <path
            d="M38.5 48.7666C44.1701 48.7666 48.7667 44.1701 48.7667 38.4999C48.7667 32.8298 44.1701 28.2333 38.5 28.2333C32.8299 28.2333 28.2333 32.8298 28.2333 38.4999C28.2333 44.1701 32.8299 48.7666 38.5 48.7666Z"
            fill="black" />
        <path
            d="M28.875 6.41663L23.0038 12.8333H12.8333C9.30417 12.8333 6.41667 15.7208 6.41667 19.25V57.75C6.41667 61.2791 9.30417 64.1666 12.8333 64.1666H64.1667C67.6958 64.1666 70.5833 61.2791 70.5833 57.75V19.25C70.5833 15.7208 67.6958 12.8333 64.1667 12.8333H53.9963L48.125 6.41663H28.875ZM38.5 54.5416C29.645 54.5416 22.4583 47.355 22.4583 38.5C22.4583 29.645 29.645 22.4583 38.5 22.4583C47.355 22.4583 54.5417 29.645 54.5417 38.5C54.5417 47.355 47.355 54.5416 38.5 54.5416Z"
            fill="black" />
    </g>
    <defs>
        <clipPath id="clip0_20_158">
            <rect width="77" height="77" fill="white" />
        </clipPath>
    </defs>
</svg>