<svg width="22" height="34" viewBox="0 0 22 34" fill="none" xmlns="http://www.w3.org/2000/svg">
    <path
        d="M7.76725 23.88V22.104C7.76725 20.856 7.95925 19.816 8.34325 18.984C8.75925 18.12 9.36725 17.336 10.1673 16.632C10.9993 15.928 12.0233 15.192 13.2393 14.424C14.3913 13.688 15.3673 12.856 16.1673 11.928C16.9673 11 17.3673 9.896 17.3673 8.616C17.3673 7.08 16.8073 5.88 15.6873 5.016C14.5673 4.152 13.1273 3.72 11.3672 3.72C9.92725 3.72 8.75925 3.992 7.86325 4.536C6.96725 5.048 6.27925 5.704 5.79925 6.504C5.35125 7.304 5.04725 8.12 4.88725 8.952L0.95125 7.848C1.43125 5.544 2.63125 3.72 4.55125 2.376C6.50325 1.032 8.83925 0.36 11.5593 0.36C13.2233 0.36 14.8233 0.647999 16.3593 1.224C17.8953 1.768 19.1433 2.616 20.1033 3.768C21.0953 4.92 21.5913 6.408 21.5913 8.232C21.5913 9.608 21.3033 10.856 20.7273 11.976C20.1513 13.096 19.3993 14.088 18.4713 14.952C17.5753 15.816 16.6153 16.584 15.5913 17.256C14.6953 17.832 13.9753 18.344 13.4313 18.792C12.8873 19.24 12.4873 19.72 12.2313 20.232C12.0073 20.744 11.8953 21.416 11.8953 22.248V23.88H7.76725ZM9.92725 33.576C9.12725 33.576 8.40725 33.288 7.76725 32.712C7.12725 32.136 6.80725 31.4 6.80725 30.504C6.80725 29.64 7.11125 28.904 7.71925 28.296C8.32725 27.688 9.06325 27.384 9.92725 27.384C10.7913 27.384 11.5113 27.704 12.0873 28.344C12.6953 28.952 12.9993 29.672 12.9993 30.504C12.9993 31.336 12.6953 32.056 12.0873 32.664C11.4793 33.272 10.7593 33.576 9.92725 33.576Z"
        fill="white" />
</svg>