<svg width="41" height="39" viewBox="0 0 41 39" fill="none" xmlns="http://www.w3.org/2000/svg">
    <g clip-path="url(#clip0_20_251)">
        <path
            d="M20.7493 3.63635C14.2926 3.63635 9.0705 8.6159 9.0705 14.7727C9.0705 21.4068 16.4448 30.5545 19.4813 34.0386C20.1487 34.8023 21.3666 34.8023 22.0339 34.0386C25.0537 30.5545 32.4281 21.4068 32.4281 14.7727C32.4281 8.6159 27.206 3.63635 20.7493 3.63635ZM20.7493 18.75C18.4469 18.75 16.5783 16.9682 16.5783 14.7727C16.5783 12.5773 18.4469 10.7954 20.7493 10.7954C23.0517 10.7954 24.9203 12.5773 24.9203 14.7727C24.9203 16.9682 23.0517 18.75 20.7493 18.75Z"
            fill="black" />
    </g>
    <defs>
        <clipPath id="clip0_20_251">
            <rect width="40.0415" height="38.1818" fill="white" transform="translate(0.728516 0.45459)" />
        </clipPath>
    </defs>
</svg>